# xmcd CD database file
#
# Track frame offsets:
#	187
#	33017
#	55847
#	100572
#	125695
#	141255
#	166975
#	192802
#	227280
#	254397
#	280772
#	303950
#
# Disc length: 4586 seconds
#
# Revision: 1
# Processed by: cddbd v1.5.2PL0 Copyright (c) Steve Scherf et al.
# Submitted via: CDex 1.51
#
DISCID=9411e80c
DTITLE=Eric Dolphy - The Complete Prestige Recordings, Cd 05
DYEAR=1996
DGENRE=Jazz
TTITLE0=Six And Four
TTITLE1=Mama Lou
TTITLE2=Ralph's New Blues
TTITLE3=Straight Ahead
TTITLE4=111-44
TTITLE5=Rally
TTITLE6=Bass Duet
TTITLE7=Softly, As In A Morning Sunrise
TTITLE8=Where?
TTITLE9=Yes, Indeed
TTITLE10=Saucer Eyes
TTITLE11=Status Seeking
EXTD=YEAR: 1996
EXTT0=
EXTT1=
EXTT2=
EXTT3=
EXTT4=
EXTT5=
EXTT6=
EXTT7=
EXTT8=
EXTT9=
EXTT10=
EXTT11=
PLAYORDER=
